<?xml version="1.0"?>
<svg xmlns="http://www.w3.org/2000/svg" xmlns:xlink="http://www.w3.org/1999/xlink" version="1.1" viewBox="0 0 224 224" width="48px" height="48px"><g transform=""><g fill="none" fill-rule="nonzero" stroke="none" stroke-width="1" stroke-linecap="butt" stroke-linejoin="miter" stroke-miterlimit="10" stroke-dasharray="" stroke-dashoffset="0" font-family="none" font-weight="none" font-size="none" text-anchor="none" style="mix-blend-mode: normal"><path d="M0,224v-224h224v224z" fill="none"/><g id="original-icon" fill="#3498db"><path d="M112,18.66667c-51.548,0 -93.33333,41.78533 -93.33333,93.33333c0,51.548 41.78533,93.33333 93.33333,93.33333c51.548,0 93.33333,-41.78533 93.33333,-93.33333c0,-51.548 -41.78533,-93.33333 -93.33333,-93.33333zM158.66667,121.33333h-37.33333v37.33333h-18.66667v-37.33333h-37.33333v-18.66667h37.33333v-37.33333h18.66667v37.33333h37.33333z"/></g><path d="M112,224c-61.85589,0 -112,-50.14411 -112,-112v0c0,-61.85589 50.14411,-112 112,-112v0c61.85589,0 112,50.14411 112,112v0c0,61.85589 -50.14411,112 -112,112z" fill="none"/><path d="M112,219.52c-59.38166,0 -107.52,-48.13834 -107.52,-107.52v0c0,-59.38166 48.13834,-107.52 107.52,-107.52h0c59.38166,0 107.52,48.13834 107.52,107.52v0c0,59.38166 -48.13834,107.52 -107.52,107.52z" fill="none"/><path d="" fill="none"/></g></g></svg>
